<svg xmlns="http://www.w3.org/2000/svg" width="255" height="118" fill="none" ml-update="aware">
    <path fill-rule="evenodd" clip-rule="evenodd" d="M73.45.722c-.308 0-.49.158-.738.282-.244.122-.633.13-.755.379-.123.246-.59.419-.836.48-.248.061-.803.468-1.316.901-.513.431-2.701 1.966-4.163 4.28-1.427 2.265-1.215 3.105-1.532 3.903-.36.898-.537 1.647-.784 2.327-.246.68-.16 3.524-.152 4.053.007.471.382.61.382.856 0 .247.137.413.352.708.149.204.012.337.28.644.265.31.102.214.5.575.246.223.227.6.597 1.279.37.679.447.69.776 1.06.366.41.616.576.991.796.556.325.277.886.902.846.617-.042 1.082-.157 1.51-.034.355.1.161.014.61.014.452 0-.156-.066.43-.137.545-.066.122.442.798.504 0 0 .374.176 1.112.052.738-.122 1.251-.277 1.472-.754.42-.906.76-.926 1.097-1.287.322-.343.398-.132.707-.256.307-.125.403-.947.748-1.163.537-.34 1.063-1.173 1.493-1.482.431-.308 1.449-1.888 2.003-3 .553-1.113 1.25-2.881 1.312-3.52.06-.64-.094-.806.091-1.301.184-.496.279-1.255.279-1.748 0-.493-.123-1.237-.247-1.606-.123-.373-.152-.948-.152-.948s-.34-.552-.34-.86c0-.309-.087-.714-.456-.962-.37-.247-.49-1.005-.737-1.5-.247-.493-.55-.51-.55-.942 0-.433-.922-1.072-1.23-1.441-.308-.371-1.12-1.117-1.427-1.117-.307 0-.328-.02-.716-.02-.39 0-.372-.219-.618-.28-.246-.063-.797-.1-1.076.2-.122.309-.31.219-.616.219Zm63.077 52.229s13.27-2.983 13.887-3.155c.617-.173 1.293.108 1.627.456.588.622 1.669 3.802 2.32 6.351.653 2.548.07 5.926 0 6.304-.066.38-.408 1.326-.95 1.542-.372.15-8.782 2.242-11.162 2.939-4.132 1.21-12.406 3.939-12.406 3.939-1.03.413-4.064 1.493-5.525 1.942h-20.856s-.103-.212-.254-.639c-.276-.782-.534-1.075-.809-1.453a4.295 4.295 0 0 1-.569-1.015c-.171-.415-.216-.557-.285-.73-.068-.172-.279-.288-.345-.53-.07-.24-.242-.55-.585-.86-.341-.311-.758-1.091-1.296-1.665-.774-.823-1.44-1.246-1.63-1.501-.19-.257-.366-.235-.398-.545-.035-.311.461-.413.622-.475 2.804-1.055 17.78-5.713 21.424-6.611 2.474-.612 17.19-4.294 17.19-4.294Zm-56.319-5.082c.537.349 1.682 1.187 2.06 1.381.71.365 1.835 1.542 1.835 1.542s.473.858 1.056 1.279c.61.439.732.47 1.51 1.38.57.665 2.158 2.012 2.158 2.012l.653.292.89 1.079s.367.264.586.557c.218.29 1.612 1.686 1.612 1.686s.581.437.944.874c.364.437.725.728.873 1.095.145.364.441.777.878 1.068.435.29.82-.194 1.328-.413.509-.219 3.759-1.955 4.355-2.177.435-.165 11.05-5.228 11.994-5.737.945-.511 8.411-3.829 9.281-4.266.873-.437 8.479-3.91 8.479-3.91s2.194-.873 3.711-1.625c1.074-.533 1.44-.573 1.76-1.343.152-.363-.852-3.903-1.215-4.634-.364-.728-1.118-2.987-2.284-4.733-1.167-1.744-2.206-2.893-2.379-3.093-.174-.2-.558-.3-.981-.3-.421 0-1.788.412-1.788.412s-4.451 1.483-5.519 1.76c-1.067.273-26.656 8.69-30.027 10-3.348 1.296-4.138 1.342-10.25 3.966-1.36.583-2.073.736-2.137 1.211 0 .29.226.383.617.637Zm-31.857 53.25a.792.792 0 0 0 .77.413c.267-.018.473-.12.692.01.22.132-.005.146.345.411.352.264.435-.022.566.242.13.263-.078.469.271.469.352 0 .515-.1.735.033.218.132.132.513.218.819.088.309.219.101.48.101.263 0 .029-.135.38-.311.35-.177.642-.288.95-.201.307.089.442.321.618.453.175.133.417.051.68.095.264.044.19.086.365.305.176.22.356.13.618.042.264-.086.153-.015.24.336.09.353-.06.115-.06.379 0 .265.273.215.668.126.396-.088.333-.284.64-.284.306 0 .1.122.67-.01.57-.133.192-.131.531-.263.34-.132.386-.006.647-.315.264-.308.221-.242.442-.242.219 0 .19.202.145.599-.043.395.143.223.587.179.419-.042.322-.115.63-.379.306-.265.17-.377.477-.816.307-.441.433-1.237.872-1.852.439-.616 1.057-1.837 1.408-2.454.352-.617.427-.88.646-1.144.219-.265.526-.838.658-1.265.131-.43.482-1.103.746-1.367.262-.263.623-1.424.623-1.424.306-.53.603-1.395.911-1.836.307-.439.483-.868.745-1.307.263-.441.308-1.014.57-1.235.263-.219.22-.66.964-1.936.746-1.279 1.308-2.219 1.308-2.219l.837-2.03c.307-.75.563-1.113.781-1.422.22-.31.172-.419.433-1.124.263-.704.382-1.057.733-1.584.352-.53 1.975-4.001 2.02-4.399.043-.394.29-.876.553-1.182.264-.31.9-2.508 1.204-2.556.325-.054.284-.024.43.144.244.283.208.313.471.401.263.089.703.417.922.728.218.306.513.575.513.575s.064.169.365.243c.182.046.26.3.345.453.095.166.275.204.407.335.13.134.7.579.79.888.085.306.606.473.864.7.723.629 1.544 1.91 1.674 2.219.131.306.485.615.661.925.176.307.063.25.063.556 0 .308.462.577.594.707.131.133.24.397.285.573.043.177.329.516.417.65.088.13.212.662.345.97.131.309.722 1.05.958 1.804.094.297.03.422.172.792.145.381.416 1.157.617 1.662.24.61.797 2.492 1.005 3.155.15.467-.039.485.138.883.125.282.408.316.281 1.038-.05.292.137.449.105.832-.043.525.21.735.314 1.06.094.297-.18.417-.355.505-.176.088-8.599 4.13-9.157 4.437-.558.308-11.768 5.62-12.337 5.927-.569.309-12.761 6.429-13.507 6.781-.746.353-6.537 3.39-7.798 3.964-1.258.573-3.799 2.058-4.193 2.058-.394 0-.731-.186-1.226-.567-.932-.714-1.831-2.207-2.268-3.033-.44-.824-1.113-3.263-1.273-4.625-.113-.97-.043-2.586.045-3.113.088-.531.335-.796.774-1.191.437-.396 6.492-3.997 6.711-4.083.219-.088 1.667-.908 1.93-.952.264-.044.346.014.346.19 0 .177.027 1.139.255 1.554Zm-33.864-24.11s-7.867 4.012-8.955 5.339c-.77.938-.66 2.594.22 5.8.884 3.225 1.558 4.844 2.155 5.233 1.478.957 5.174-1.591 8.789-3.013 8.085-3.183 12.052-4.262 12.052-4.262s.933-.188.439.167c-1.731 1.23-8.016 4.19-11.004 5.858-3.84 2.14-15.276 8.344-15.844 9.058-.568.714-1.41 1.211-1.267 2.64 0 0 .333 2.722 1.872 5.986.933 1.98 2.479 3.925 3.688 4.31 1.208.387 1.594-.552 3.468-1.329.578-.241 28.826-13.76 28.826-13.76s7.748-3.383 8.903-3.824c1.154-.442.868-.887 1.06-1.227.172-.305-.162-.614.38-1.193.355-.38 1.291-3.518 1.291-3.518s.595-1.15.515-1.421c-.161-.548 1.13-3.027 1.285-3.805.095-.463.76-1.7.926-2.033.166-.33.356-1.132.58-1.844.184-.581 1.319-3.74 1.319-3.74s1.19-2.32 1.29-3.15c.032-.274.66-1.217.769-1.657.109-.442 0-.716.274-.938.276-.221 1.044-1.712 1.044-2.16 0-.445.832-1.677 1.375-2.742.579-1.808.644-2.253 1.19-2.966.43-.56.543-1.546.707-2.097.165-.553.331-1.191.604-1.632.277-.441.794-1.55.96-1.828.165-.275.17-.946.226-1.28.055-.328.529-.677.604-.991.113-.467.144-.383.148-.61l.008-.673c.1-.255.361-.614.192-.97-.184-.388-1.048.18-2.12.535-1.215.398-29.141 14.15-29.141 14.15L14.487 77.01Zm89.326-58.03s8.597-2.36 9.602-2.722c1.003-.365.97-.259 1.197-.175.229.084.397-.022.677-.022.277 0 .696-.168 1.002-.336.307-.169.42-.115.642-.199.223-.082.725.059.725.059s.726.194.922.278c.194.084.168.198.194.367.029.169.029.222.14.306l.614.478s.027.196.055.475c.029.282-.028.477.058.505.082.03.198.14.281.309.084.168-.004.14.023.368.029.231.229.279.425.422.195.14.027.252.027.252s.028.195.028.363c0 .168.088 1.066.339 1.235.252.166.556.395.696.645.139.253-.062.864.049.948.112.085.396.395.367.592-.028.196-.502 1.323-.586 1.545-.084.225.196.674.279.983.084.306-.083.84-.195.98-.111.14-.272.206-.634.26-.364.056-1.968.46-1.968.46-7.229 1.647-18.237 4.768-31.468 8.695-8.03 2.642-10.423 3.615-14.941 5.236-10.977 3.943-29.36 11.563-39.3 16.803-.353.186-.452.427-.797.48-.345.053-.451-.108-.505-.346-.053-.24-.106-.054-.422-.134-.32-.08-.372-.055-.65-.293-.276-.238-.08-.279-.45-.279-.372 0-.664.28-.93.411-.265.135-.398.427-.555.453-.16.028-.187.16-.373.32-.185.162-.105.215-.212.215-.106 0-.132.107-.24.241-.105.13-.238.157-.45.184-.213.029-.476.239-.663.213-.185-.026-.45.347-.663.32-.213-.025-.32.267-.716.482-.398.212-.544.585-.887.717-.345.133-.398.187-.53.321-.133.132-.532.132-.771.026 0 0-.133-.214-.133-.4 0-.187.026-.265.026-.265s-.106-.052-.106-.16c0-.107.106-.027.106-.213 0-.187 0-.134-.106-.16-.104-.027.054-.454.026-.694-.026-.24-.026-.293-.105-.345-.08-.054-.052-.187-.025-.453.025-.269-.106-.32-.213-.507-.106-.189-.265-.16-.505-.375-.238-.21-.265-.491-.345-.65-.08-.16-.132-.16-.292-.134-.159.027-.396-.134-.476-.212-.08-.08-.318-.134-.505-.134-.185 0-.16-.185-.212-.452-.053-.266.08-.32.24-.426.159-.109.264-.187.397-.215.133-.026.21-.16.37-.347.16-.186.372-.16.505-.24.133-.079.16-.079.398-.237.24-.16.293-.401.478-.722.185-.32.421-.459.743-.689 18.294-11.332 37.573-19.394 42.299-21.373 14.357-6.008 37.999-13.038 37.999-13.038Z" fill="#E00"/>
    <path fill-rule="evenodd" clip-rule="evenodd" d="m94.204 97.446.014.005-.419 3.89s-2.959-2.012-4.414-.416c-.382.416-1.037 1.319.59 2.954 1.025 1.031 1.9 1.409 2.28 3.843-.031 2.835-2.232 5.595-6.106 5.721-2.02.067-4.008-.594-4.1-.624l-.003-.001.496-3.913c1.598.904 3.814 1.443 4.714.778 1.229-.909.605-2.135-.035-2.867-.798-.914-2.768-2.554-2.435-5.276.374-3.027 3.319-4.599 5.395-4.703 1.82-.091 3.835.548 4.023.609Zm160.336.004h.003l-.419 3.891s-2.959-2.012-4.414-.416c-.38.416-1.037 1.319.589 2.954 1.026 1.031 1.901 1.409 2.28 3.843-.03 2.835-2.231 5.595-6.105 5.721-2.02.067-4.008-.594-4.1-.624l-.003-.001.496-3.913c1.598.904 3.813 1.443 4.714.778 1.229-.909.605-2.135-.035-2.867-.799-.914-2.768-2.554-2.435-5.276.374-3.027 3.319-4.599 5.395-4.703 1.866-.094 3.939.581 4.034.612Zm-91.303-.372c4.422.158 6.764 3.281 5.366 8.551-1.259 4.751-5.225 7.818-9.731 7.818-4.155 0-7.774-2.487-6.044-8.453 1.341-4.619 4.383-8.13 10.409-7.916Zm59.315.016c5.802 0 4.304 7.543-.457 9.073l.917 6.938h-4.364l-.642-8.837.052.001c.162.001.713.004 1.797.001.834-.002 2.03-1.127 2.148-2.119.184-1.567-1.772-1.461-1.772-1.461h-1.821l-3.324 12.415h-4.044l4.232-16.011h7.278Zm-73.658 0c5.801 0 4.303 7.543-.458 9.073l.918 6.938h-4.365l-.642-8.837.052.001c.162.001.713.004 1.798.001.833-.002 2.028-1.127 2.147-2.119.184-1.567-1.772-1.461-1.772-1.461h-1.82l-3.324 12.415h-4.044l4.231-16.011h7.279Zm51.439 0-.918 3.616-4.201.006-3.206 12.388h-4.334l3.246-12.38-4.085.006.921-3.636h12.577Zm12.385 0-.877 3.614h-6.518l-.628 2.668h5.6l-.879 3.544h-5.556l-.709 2.867h6.516l-.792 3.315h-10.749l3.878-16.008h10.714Zm-35.395 0 2.44 10.316 2.683-10.316h3.553l-4.03 16.008h-4.865l-2.543-10.041-2.547 10.041h-3.686l4.113-16.008h4.882Zm62.118 0 1.592 16.008h-4.281l-.339-4.568h-4.622l-2.761 4.568h-4.695l10.1-16.008h5.006Zm-129.606 0 2.441 10.316 2.683-10.316h3.553l-4.031 16.008h-4.864l-2.543-10.041-2.547 10.041h-3.687l4.114-16.008h4.881Zm-7.913 0-3.968 16.008h-4.21l3.996-16.008h4.182Zm37.325 0-.893 3.614h-6.074l-.614 2.668h5.14l-.876 3.544h-5.114l-1.619 6.182h-4.078l3.909-16.008h10.219Zm17.677 8.345c-.745 2.624.598 4.5 2.676 4.5 2.253 0 4.16-1.862 4.853-4.5.691-2.638-.026-4.801-2.507-4.877-3.014-.093-4.367 2.563-5.022 4.877Zm79.278-4.912-2.672 4.471 2.926.01-.254-4.481Zm-56.87-23.277c4.422.159 6.764 3.282 5.366 8.552-1.259 4.75-5.224 7.82-9.731 7.82-4.156 0-7.775-2.49-6.044-8.455 1.34-4.619 4.383-8.131 10.409-7.917Zm17.87.372.003.001-.419 3.891s-2.958-2.013-4.413-.416c-.38.416-1.038 1.318.588 2.954 1.026 1.03 1.899 1.409 2.281 3.843-.031 2.834-2.231 5.593-6.106 5.72-2.019.068-4.009-.593-4.1-.624h-.003l.497-3.914c1.597.904 3.812 1.444 4.714.778 1.227-.908.605-2.135-.035-2.866-.799-.914-2.769-2.554-2.437-5.276.375-3.025 3.319-4.599 5.395-4.703 1.867-.094 3.939.58 4.035.612Zm-28.545-.384.237.05-.524 3.815c-5.007-2.247-7.794 1.494-8.46 3.847-.749 2.637-.745 6.654 6.304 4.503l.216-.067-1.336 3.837c-8.39 1.746-11.299-2.432-9.07-9.305 1.324-4.087 4.854-8.294 12.633-6.68Zm-25.775.027c4.948 0 4.849 4.873 4.365 7.342-.503 2.575-2.268 8.08-8.331 8.652l-.21.018h-7.008l3.878-16.012h7.306Zm-33.228.002-.062 9.824 4.716-9.824h5.568l-4.005 16.008h-3.527l2.853-11.212-5.543 11.212h-3.591l.121-11.212-2.728 11.212h-3.368l3.964-16.008h5.602Zm45.994 0-3.969 16.008h-4.209l3.995-16.008h4.183Zm-22.391 0-.879 3.614h-6.516l-.628 2.668h5.6l-.879 3.544h-5.556l-.709 2.866h6.516l-.793 3.316h-10.748l3.878-16.009h10.714Zm39.761 8.345c-.743 2.623.599 4.5 2.677 4.5 2.254 0 4.161-1.862 4.853-4.5.691-2.639-.027-4.801-2.507-4.878-3.014-.092-4.366 2.564-5.023 4.878Zm-31.698-4.729h-2.577l-2.124 9.077h1.603c3.022 0 4.51-3.106 4.773-4.785.247-1.56.709-4.292-1.675-4.292Z" fill="#000"/>
</svg>