<svg id="Layer_1" data-name="Layer 1" xmlns="http://www.w3.org/2000/svg" viewBox="0 0 334.75 51.45">
  <defs>
    <style>
      .cls-1 {
        fill: #fff;
      }
    </style>
  </defs>
  <path class="cls-1" d="M255.06,49.4h1.32V46.69h2.87V45.58h-2.87v-1.5h3.27V43h-4.59ZM248.8,43h-4.64V49.4H249V48.26h-3.47V46.58h3V45.47h-3V44.11h3.31ZM238,43h-1.32V49.4H238ZM226.37,49.4h4.55V48.26H227.7V43h-1.33ZM219.94,43H215.3V49.4h4.8V48.26h-3.48V46.58h3V45.47h-3V44.11h3.32Zm-13.47,1.11a1.23,1.23,0,0,1,.62.12.81.81,0,0,1,.37.78.72.72,0,0,1-.38.72,1.36,1.36,0,0,1-.64.11H205V44.08Zm.28-1.11h-3.07V49.4H205V46.87h1.3a1.06,1.06,0,0,1,.76.21,1.21,1.21,0,0,1,.21.82v.6a3.31,3.31,0,0,0,.05.55,2.89,2.89,0,0,0,.1.35h1.48v-.16a.51.51,0,0,1-.24-.37,2.74,2.74,0,0,1,0-.6v-.44a2.18,2.18,0,0,0-.18-1,1.18,1.18,0,0,0-.64-.5,1.31,1.31,0,0,0,.76-.63,1.9,1.9,0,0,0,.24-.9,1.79,1.79,0,0,0-.12-.68,2,2,0,0,0-.32-.53,1.62,1.62,0,0,0-.61-.46,3.07,3.07,0,0,0-1-.16m-18,6.43h4.55V48.26h-3.22V43h-1.33Zm-8.85-5,.82,2.54H179Zm-3,5h1.4l.43-1.31H181l.42,1.31h1.46L180.65,43h-1.51Zm-10.27,0h1.24V44.83l2.62,4.57h1.33V43h-1.24v4.48L168,43h-1.4Zm-8.91-1a1.54,1.54,0,0,1-1.28-.59,2.53,2.53,0,0,1-.48-1.66,2.58,2.58,0,0,1,.48-1.67,1.69,1.69,0,0,1,2.56,0,3.23,3.23,0,0,1,0,3.32,1.55,1.55,0,0,1-1.28.59m3.07-2.25a3.42,3.42,0,0,0-1-2.64,3.33,3.33,0,0,0-4.21,0,3.39,3.39,0,0,0-1,2.64,3.45,3.45,0,0,0,1,2.64,3.33,3.33,0,0,0,4.21,0,3.48,3.48,0,0,0,1-2.64M148.55,43h-1.33V49.4h1.33Zm-12.2,0v1.14h1.93V49.4h1.35V44.11h1.93V43Zm-7.66,1.47.82,2.54h-1.65Zm-3,5h1.4l.43-1.31h2.37l.42,1.31h1.45L129.47,43H128Zm-9.74,0h1.24V44.83l2.62,4.57h1.33V43h-1.24v4.48L117.32,43h-1.4Zm-8.6-5.32a1.24,1.24,0,0,1,.61.12.79.79,0,0,1,.37.78.72.72,0,0,1-.38.72,1.36,1.36,0,0,1-.64.11h-1.43V44.08Zm.27-1.11h-3.07V49.4h1.33V46.87h1.29a1,1,0,0,1,.76.21,1.21,1.21,0,0,1,.21.82v.6a2.51,2.51,0,0,0,.06.55c0,.09,0,.21.09.35h1.48v-.16a.51.51,0,0,1-.24-.37,4,4,0,0,1,0-.6v-.44a2.16,2.16,0,0,0-.19-1,1.19,1.19,0,0,0-.63-.5,1.37,1.37,0,0,0,.76-.63,2,2,0,0,0,.23-.9,1.79,1.79,0,0,0-.12-.68,2,2,0,0,0-.32-.53,1.62,1.62,0,0,0-.61-.46,3.07,3.07,0,0,0-1-.16m-9,0H93.93V49.4h4.8V48.26H95.26V46.58h3V45.47h-3V44.11h3.32ZM83.27,43v1.14H85.2V49.4h1.35V44.11h1.92V43ZM72.72,49.4H74V44.83l2.62,4.57h1.33V43H76.68v4.48L74.12,43h-1.4ZM66.64,43H65.32V49.4h1.32Z"/>
  <path class="cls-1" d="M48.92,14.9c-4-5.44-11.82-9.72-18.46-9.81-13.73-.17-19,8.54-20.82,15.51C6,21.74,2.71,23,0,24.06,1.35,11.8,11.92,0,26.22,0A25.23,25.23,0,0,1,49.36,14.74s.3.66.11.72-.55-.56-.55-.56"/>
  <path class="cls-1" d="M43,28.35a28.24,28.24,0,0,1-.76,4.44c-1.81,6.8-7.86,14-19.77,13.69C15.87,46.31,8,42,4.22,36.52c0,0-.29-.46-.4-.4s.08.57.08.57A24.55,24.55,0,0,0,26.64,51.45,26.65,26.65,0,0,0,52.75,30.06c-3-.69-6.27-1.27-9.71-1.71"/>
  <path class="cls-1" d="M323,19.08c.78,0,.84-.34.84-.73a3,3,0,0,0-3-3.21c-2,0-3.51,1.48-4,3.94Zm4.67,8-.11.13c-1.37,1.83-3.6,4.27-7,4.27-5.75,0-7.28-5.41-7.28-8.28,0-7,4.6-9.61,7.69-9.61s6.43,2.06,6.46,6a3.9,3.9,0,0,1-.12.84,3.17,3.17,0,0,1-.45.25H316.58c0,.39,0,1.94,0,1.94.22,3.56,2.47,6.23,5.24,6.23,1.69,0,3.19-.75,4.88-2.42l.13-.14Zm-21.71-6.19c-2-.85-3.71-1.59-3.71-3.47a2.41,2.41,0,0,1,2.69-2.25c2.19,0,3.48,1.18,3.85,3.5l0,.17H310l-.28-4a9,9,0,0,0-4.42-1.26c-4.36,0-5.94,3-5.94,4.94,0,3.34,2.45,4.47,4.62,5.46,1.86.85,3.46,1.58,3.46,3.47,0,1.18-.74,2.44-2.81,2.44-3.26,0-4.21-3.05-4.48-4.36l0-.21-1,.28.43,4.43a9.11,9.11,0,0,0,4.71,1.44c4.52,0,6.58-2.72,6.58-5.24,0-3.25-2.6-4.37-4.89-5.35m-11.18-7.3c-2.18,0-3.7,2.07-4.62,3.48V14.23c0-.16,0-.67-.53-.67l-1.28.55-3.43,1.63v.68a1.63,1.63,0,0,0,.57.37c.6.24,1.36.53,1.36,1.3V28.51c0,1-.46,1-1.58,1H284V30.9l4.61-.08,3.79.05,1.6,0V29.53h-2.28c-1.12,0-1.58,0-1.58-1V19.8a2.93,2.93,0,0,1,2.51-2.88,1.81,1.81,0,0,1,1.19.42l1.25.47a2,2,0,0,0,1.95-2.09,2.24,2.24,0,0,0-2.32-2.16M280,28.66V15c0-.41,0-.87-.49-.87l-1,.1-5,.44v1l.53.14c1,.28,2.59.7,2.59,1.23V27c-1.65,1.28-3.19,2.06-4.29,2.06-3,0-3-3-3-4.1V15.38c0-.81,0-1.27-.61-1.27l-5,.27v1.07l.18,0c1.9.17,2,.92,2,1.89v9.48c0,3.19,2.15,4.61,4.28,4.61,2.5,0,4.2-1.15,6.36-2.91v2.6a.91.91,0,0,0,.29.28,50.38,50.38,0,0,1,5.45-1.12h.18V29.13l-1.67,0c-.68,0-.85-.06-.85-.51m-26.22-24-4.12.08-5.19-.08V6h.2c2.69,0,3.06.73,3.06,3.44V27.06c0,2.42-1.19,2.44-3.17,2.47h-.2V30.9l.9,0,4.67-.06,5.25.08V29.54H255c-2,0-3.22-.05-3.22-2.47V6.3l1.43-.1c2.7,0,5.85,1.68,5.85,6.41,0,2.79-1.51,5.62-4.4,5.62L253,18.14l0,.21v1.42l2.09,0c3.94,0,8.16-3.06,8.16-7.61,0-5.59-5.12-7.58-9.5-7.58M231.83,20.86c-2-.85-3.7-1.59-3.7-3.47a2.41,2.41,0,0,1,2.69-2.25c2.18,0,3.48,1.18,3.85,3.5l0,.17h1.24l-.28-4a9,9,0,0,0-4.42-1.26c-4.36,0-5.95,3-5.95,4.94,0,3.34,2.46,4.47,4.63,5.46,1.85.85,3.45,1.58,3.45,3.47,0,1.18-.73,2.44-2.8,2.44-3.27,0-4.22-3.05-4.48-4.36l0-.21-1,.28.42,4.43a9.17,9.17,0,0,0,4.72,1.44c4.52,0,6.58-2.72,6.58-5.24,0-3.25-2.6-4.37-4.9-5.35M222.69,4.32c-1.14,0-1.85.61-1.85,1.6,0,1.42.84,1.6,1.58,1.6s1.15.07,1.15.94c0,1.1-.82,1.93-2.45,2.46l-.21.06.42,1,.17-.05c2.48-.71,3.9-2.34,3.9-4.45,0-1.53-.85-3.17-2.71-3.17m-1.3,25.21h-.87c-1.11,0-1.65,0-1.65-1V18.94c0-3.47-1.59-5.38-4.46-5.38-2.47,0-4.31,1.23-6.22,2.6v-2c0-.53-.32-.57-.42-.57S203,15.28,203,15.28l-.36.11v1l.12.05c1.75.71,2,1,2,2.27v9.82c0,1-.45,1-1.58,1h-.87V30.9h.54l3.67-.07,4.13.08V29.53h-.86c-1.12,0-1.66,0-1.66-1v-11A10.56,10.56,0,0,1,212.3,16c1.46,0,3.2.51,3.2,2.95v9.6c0,1-.45,1-1.57,1h-.87V30.9h.54l3.66-.07,4.13.08V29.53Zm-33.63-2.69a2.49,2.49,0,0,0,2.44,2.47c1.57,0,2.62-.92,3.73-1.9,0,0,.11-.1.15-.1V22.74L193,23.1c-2.21.69-5.24,1.63-5.24,3.74M200,28.26l.54,1-.11.11c-1,.91-2.21,2.05-3.8,2.05s-2.25-1.24-2.43-2.57c-1.74,1.54-3.38,2.57-5.58,2.57a3.93,3.93,0,0,1-4.21-3.8c.16-3.12,1.82-3.7,9.68-6.4V18.94c0-2-1.14-3-3.4-3a2.38,2.38,0,0,0-2.62,2.39c0,1.2-1.35,1.76-2.27,1.76a.87.87,0,0,1-.87-.94c0-2.05,1.66-3,4.38-4.4l.65-.36a5.12,5.12,0,0,1,2.77-.85c1.7,0,4.72,1.1,4.72,3.31V27.14c0,1.91.86,1.91,1.14,1.91a1.66,1.66,0,0,0,1.22-.55ZM181.62,28a3.5,3.5,0,0,1-2.47,1c-.5,0-2.14-.21-2.14-2.91V16.51h5.53v-2.4H177V10.33h-.63a16.54,16.54,0,0,1-4.55,4.82l-.55.41-.07.75v.2h2.44V27.8c0,2.36,1.32,3.65,3.72,3.65,1.72,0,3.39-.84,5.08-2.58l.13-.14-.83-.82ZM165.55,8.24a2.06,2.06,0,0,0,2-2,2,2,0,0,0-2-2,2.07,2.07,0,0,0-2,2,2.11,2.11,0,0,0,2,2.05m4.16,21.29h-.83c-1.15,0-1.66,0-1.66-1V14.28c0-.65-.31-.72-.45-.72l-.77.21c-.19.12-2.14.79-3.92,1.32l-.14,0v.74a.84.84,0,0,0,.28.27c1.23.66,1.65.88,1.65,2.33v10c0,1-.46,1-1.59,1h-.9V30.9l.63,0,3.61-.06,4.1.08V29.53Zm-12.32-16c-2.19,0-3.7,2.07-4.62,3.48V14.23c0-.16,0-.67-.53-.67l-1.28.55-3.44,1.63v.68c.1.18.57.37.57.37.6.24,1.35.53,1.35,1.3V28.51c0,1-.45,1-1.58,1h-1.19V30.9l4.6-.08,3.79.05,1.6,0V29.53h-2.27c-1.13,0-1.58,0-1.58-1V19.8a2.93,2.93,0,0,1,2.51-2.88,1.81,1.81,0,0,1,1.19.42l1.25.47a2,2,0,0,0,1.94-2.09,2.23,2.23,0,0,0-2.31-2.16M132.15,26.84a2.49,2.49,0,0,0,2.44,2.47c1.57,0,2.62-.93,3.74-1.91,0,0,.11-.09.14-.09V22.74l-1.08.36c-2.21.69-5.24,1.64-5.24,3.74m12.23,1.42.54,1-.11.11c-1,.91-2.21,2.05-3.81,2.05s-2.24-1.24-2.42-2.57c-1.74,1.54-3.38,2.57-5.58,2.57a3.92,3.92,0,0,1-4.2-3.8c.15-3.12,1.81-3.7,9.67-6.4V18.94c0-2-1.14-3-3.4-3a2.36,2.36,0,0,0-2.61,2.39c0,1.2-1.36,1.76-2.28,1.76a.87.87,0,0,1-.87-.94c0-2.05,1.66-3,4.38-4.4l.65-.36a5.1,5.1,0,0,1,2.77-.85c1.7,0,4.72,1.1,4.72,3.31V27.14c0,1.91.86,1.91,1.14,1.91a1.65,1.65,0,0,0,1.22-.55Zm-17.64,1.27H126c-1.15,0-1.66,0-1.66-1V19c0-3.39-1.72-5.42-4.6-5.42-2.33,0-3.92,1.1-5.6,2.28l-.7.47a3.89,3.89,0,0,0-4-2.75c-2.57,0-4.24,1.18-6.16,2.56l-.06,0V14.28c0-.65-.32-.72-.45-.72l-.77.21c-.17.1-2.14.78-3.92,1.32l-.15,0v.74a.92.92,0,0,0,.29.27c1.23.66,1.64.89,1.64,2.33v10c0,1-.45,1-1.58,1h-1V30.9l.81,0,3.51-.06,4.13.08V29.53h-.86c-1.15,0-1.66,0-1.66-1v-11C104,17.09,106,16,107.38,16c2.12,0,3,1.3,3,4.36v8.19c0,1-.46,1-1.59,1H108V30.9h.54l3.66-.07,4.17.08V29.53h-.87c-1.14,0-1.69,0-1.69-1v-11c.78-.45,2.8-1.58,4.18-1.58,2.12,0,3,1.3,3,4.36v8.19c0,1-.46,1-1.59,1h-.86V30.9h.53l3.67-.07,4,.08V29.53ZM82.85,26.84a2.48,2.48,0,0,0,2.43,2.47c1.57,0,2.62-.92,3.74-1.91,0,0,.1-.09.15-.09V22.74l-1.08.36c-2.21.69-5.24,1.63-5.24,3.74m12.22,1.42.55,1-.12.11c-1,.91-2.21,2.05-3.8,2.05s-2.25-1.24-2.43-2.57c-1.74,1.54-3.38,2.57-5.58,2.57a3.92,3.92,0,0,1-4.2-3.8c.16-3.12,1.81-3.7,9.68-6.4V18.94c0-2-1.15-3-3.41-3a2.36,2.36,0,0,0-2.61,2.39c0,1.2-1.36,1.76-2.28,1.76a.86.86,0,0,1-.86-.94c0-2.05,1.66-3,4.37-4.4l.66-.36a5.07,5.07,0,0,1,2.77-.85c1.69,0,4.71,1.1,4.71,3.31V27.14c0,1.91.86,1.91,1.14,1.91a1.65,1.65,0,0,0,1.22-.55ZM76.69,23.73c0,5-4.58,7.72-8.9,7.72A12.71,12.71,0,0,1,61.92,30l-.78-5.64h1.24l0,.16C63,27.19,65,29.87,68,29.87a4.65,4.65,0,0,0,4.88-4.74c0-3.12-2.38-4.36-4.89-5.67-2.86-1.49-6.09-3.17-6.09-7.93,0-4.6,3.12-7.46,8.14-7.46l3.49.38,1.21.2.64,5.11H74.14l0-.16a4.28,4.28,0,0,0-4.59-3.95c-2.59,0-4.25,1.79-4.25,4.55,0,3.14,2.49,4.4,5.14,5.74,3,1.49,6.27,3.18,6.27,7.79"/>
  <path class="cls-1" d="M43.56,24.76c-3.17-2.41-8.58-4-14.73-4.32l.65-8.88a.54.54,0,0,0-.05-.26.5.5,0,0,0-.35-.16,19.42,19.42,0,0,0-5.3,0,.44.44,0,0,0-.31.15.43.43,0,0,0,0,.26l.63,8.94C18.26,21,12.81,22.63,10,24.8a.33.33,0,0,0-.1.35.23.23,0,0,0,.26.18A95.67,95.67,0,0,1,24.29,23.8L25.66,43a.32.32,0,0,0,.16.26,1.5,1.5,0,0,0,1.21,0,.35.35,0,0,0,.17-.26l1.39-19.27a93.11,93.11,0,0,1,14.81,1.5.23.23,0,0,0,.26-.18A.3.3,0,0,0,43.56,24.76Z"/>
  <path class="cls-1" d="M327.45,9.51a3.65,3.65,0,1,1,3.65,3.75A3.71,3.71,0,0,1,327.45,9.51Zm6.82,0a3.17,3.17,0,1,0-6.34,0,3.17,3.17,0,1,0,6.34,0Zm-4,.18v2h-.52V7.26h1.4c1,0,1.31.36,1.31,1.12a.92.92,0,0,1-.83,1v0c.64.12.72.19.72,1.74a2.84,2.84,0,0,0,.06.5h-.51a10.29,10.29,0,0,1-.07-1.08c0-.18.13-.9-.77-.9Zm0-.48H331c.62,0,.91-.15.91-.84,0-.51-.25-.63-.74-.63h-.85Z"/>
</svg>
