<svg xmlns="http://www.w3.org/2000/svg" xmlns:xlink="http://www.w3.org/1999/xlink" width="192" height="74" viewBox="0 0 192 74"><defs><style>.a{clip-path:url(#b);}.b{fill:#fff;}</style><clipPath id="b"><rect width="192" height="74"/></clipPath></defs><g id="a" class="a"><g transform="translate(-49.664 -23.287)"><g transform="translate(51.365 31.394)"><path class="b" d="M104.622,51.745c1.254,1.494,3.443,2.374,4.728,3.87a11.438,11.438,0,0,0-8.376-8.9C102.942,48.2,103.368,50.251,104.622,51.745ZM56.068,62.965C58.849,56.909,63,58.191,64.76,52.421c-.992,1.77-5.529,2.516-7.634,7.053,1.075-2.7.536-6.818,2.354-9.044C54.044,54.44,56.36,60.929,56.068,62.965Zm5.039,14.522c.5,2.36-.966,5.761,1.363,9.014-2.416-2.707-7.527-3.4-9.618-7.512,2.608,10.06,9.4,7.988,12.466,10.174C62.8,85.541,64.859,83.133,61.107,77.487ZM60.322,83.8c-1.5-5.624,1.168-7.561-.861-12.959-.212,3.039-2.237,4.522-.871,10.078-2.412-4.709-6.145-6.46-7.225-9.69C51.44,80.061,58.532,81.367,60.322,83.8Zm10.892,9.426c-2.087-2.889-.662-4.523-6.528-9.771,1.243,1.917-.038,4.326,3.917,8.073-3.869-2.283-9.21-1.306-11.782-4.356C61.241,95.633,69.012,92.177,71.215,93.229Zm28.385-1.7c3.956-3.747,2.675-6.156,3.918-8.073-5.865,5.248-4.441,6.882-6.528,9.771,2.2-1.052,9.973,2.4,14.393-6.054C108.81,90.225,103.47,89.249,99.6,91.532Zm6.134-5.031c2.33-3.252.864-6.654,1.363-9.014-3.752,5.647-1.69,8.054-4.211,11.676,3.068-2.186,9.859-.114,12.466-10.174C113.261,83.1,108.15,83.793,105.733,86.5Zm-9.369,7.128a29.007,29.007,0,0,0-6.414-.96,15.529,15.529,0,0,0-5.849.993,15.532,15.532,0,0,0-5.849-.993,29,29,0,0,0-6.414.96c-3.527.94-6.578,1.667-9.235.322,2.546,2.261,5.52,3.067,9.816,2.6,3.577-.386,6.462-2.173,9.834-2.149.044,0,.088,0,.132,0a18.056,18.056,0,0,0-5.558,4.321l1.626.22A8.944,8.944,0,0,1,84.1,94.617a8.944,8.944,0,0,1,5.648,4.335l1.626-.22a18.055,18.055,0,0,0-5.558-4.321c.044,0,.087,0,.132,0,3.372-.024,6.257,1.763,9.834,2.149,4.3.462,7.27-.344,9.816-2.6C102.942,95.3,99.891,94.569,96.365,93.628ZM59.7,64.75c-1.456,2.792-3.716,3.431-3.476,9.194-1.219-5.12-4.135-7.024-4.1-10.3-2.029,8.537,3.388,9.552,4.78,13.13C56.7,71.648,59.978,70.614,59.7,64.75Zm2.032-6.593a10.252,10.252,0,0,1-2.213,2.122,10.986,10.986,0,0,0-3.933,6.42c.14-3.13-1.793-7.628-.507-10.907-4.98,7.031.283,11.242.471,13.787C56.838,64.681,59.805,64.642,61.734,58.158ZM112.616,66.7a10.988,10.988,0,0,0-3.933-6.42,10.26,10.26,0,0,1-2.213-2.122c1.928,6.485,4.9,6.523,6.183,11.422.187-2.545,5.451-6.756.471-13.787C114.409,59.072,112.476,63.57,112.616,66.7Zm4.223,4.532c-1.08,3.23-4.813,4.981-7.225,9.69,1.366-5.557-.658-7.039-.871-10.078-2.029,5.4.641,7.336-.862,12.959C109.672,81.367,116.763,80.061,116.839,71.232ZM108.5,64.75c-.276,5.864,3,6.9,2.793,12.026,1.392-3.578,6.809-4.593,4.78-13.13.038,3.274-2.877,5.178-4.1,10.3C112.218,68.181,109.959,67.542,108.5,64.75ZM63.582,51.745c1.254-1.494,1.68-3.549,3.648-5.032a11.438,11.438,0,0,0-8.376,8.9C60.14,54.118,62.328,53.238,63.582,51.745Zm39.862.676c1.758,5.77,5.912,4.488,8.692,10.543-.292-2.036,2.024-8.525-3.411-12.534,1.817,2.226,1.279,6.348,2.354,9.044C108.973,54.937,104.436,54.191,103.444,52.421ZM89.343,55.7a13.585,13.585,0,0,0-3.309-.9c-.005.244-.01.493-.016.74a12.869,12.869,0,0,1,3.054.84A1.99,1.99,0,0,0,89.343,55.7ZM88.5,48.556l.223-.2-.422-.179-1.112-.021-.289.2-.655-.054-.008.159c.417.027.823.067,1.145.121l.541-.049ZM86.362,72.5c0-.189-.249-.374-.62-.548h-.066c0,.154-.017.9-.024,1.273C86.108,73.018,86.362,72.8,86.362,72.5ZM73.5,58.389a3.355,3.355,0,0,1,.094-.408,1.774,1.774,0,0,1-.455.047ZM84.126,91.055a22.654,22.654,0,0,0,2.3-45.191l-.027.131c-.045.219-.086.418-.119.594a21.858,21.858,0,0,1,13.191,6.174l-2.5,2.5.1-.439-.326-.146-.451-.026.1-.288-.3-1.023-.621-.683L93.5,51.628l-.167.18-.355.1a5.857,5.857,0,0,1,1.034,3.285c0,.15,0,.3-.012.443l.969,1.217-.454.106.3.453-.854.854-.344-.654a5.766,5.766,0,0,1-.646,1.276c.064.059.129.117.191.177L90.533,61.7c-.16-.153-.327-.3-.5-.438-.252.117-.509.226-.771.326.076.057.151.115.224.175l-.134.133-.308.173-.115.308-.192-.192-.555.186.152.244.383-.1.25.019.019-.135.193-.1.058-.115.346-.1.269-.012c.052.047.106.094.157.143L88.97,63.259l-.078-.113-1.09.182-.243.244-.24.028L88,62.951l-.243-.121-.632.846.185-.02-.011.311.232.089.046.333-.379-.076-.4.073-.956-.492s-.053,2.572-.08,3.864c2.26.76,4.659,1.858,4.659,4.742a3.558,3.558,0,0,1-1.626,3.045l.009,0-.05.032-.005,0-.072.05a12.386,12.386,0,0,1-3.109,1.245c-.006,0-.031,2.019-.031,2.019,1.622.806,3.588,1.979,3.407,5.332-.022.825-.345,1.052-.619,1.127h0a17.386,17.386,0,0,1-2.93.463c0,.26-.009.509-.013.739a18.137,18.137,0,0,0,11.294-4.988l2.631,2.63a21.878,21.878,0,0,1-30.3.062l2.632-2.632a18.136,18.136,0,0,0,11.132,4.921c0-.227-.008-.475-.013-.739a17.4,17.4,0,0,1-10.6-4.7l.7-.7.963.111.513-.552,1.344.046.2-.467-.047-.2a13.668,13.668,0,0,0,6.858,2.718c-.005-.287-.01-.538-.014-.741a12.961,12.961,0,0,1-7.366-3.369l2.633-2.633a9.3,9.3,0,0,0,2.134,1.432,2.645,2.645,0,0,1,.265-.692A8.572,8.572,0,0,1,78.468,74.8l2.639-2.639a4.821,4.821,0,0,0,1.41.785c-.005-.262-.011-.536-.016-.794a4.094,4.094,0,0,1-.872-.515l.745-.745c-.262-.079-.525-.162-.788-.252l-.5.5a4.063,4.063,0,0,1-.633-.936,8.9,8.9,0,0,1-1.3-.7,5.088,5.088,0,0,1-2.444-4.472,5.364,5.364,0,0,1,1.066-3.4L75.152,59a12.978,12.978,0,0,1,7.026-3.46c0-.255-.01-.5-.014-.74a13.71,13.71,0,0,0-7.532,3.681l-.443-.444c-.1.176-.219.4-.353.686l.279.279a13.685,13.685,0,0,0-3.722,9.165H66.668a17.4,17.4,0,0,1,4.813-11.8l1.184,1.184q.081,0,.168,0a1.8,1.8,0,0,0,.671-.2l-1.5-1.5a17.589,17.589,0,0,1,2.591-2.069,4.868,4.868,0,0,1,.183-.548,8.471,8.471,0,0,1,.57-.763,18.315,18.315,0,0,0-3.863,2.861l-2.63-2.63A21.854,21.854,0,0,1,81.9,46.6l-.03-.159c-.035-.175-.072-.366-.11-.565a22.654,22.654,0,0,0,2.366,45.183Zm4.89-15.65,0-.019.007.015Zm10.967-22.12a21.842,21.842,0,0,1,6.057,14.886h-3.722a18.08,18.08,0,0,0-1.943-7.948l.033-.067.258.136.06-.2-.667-1.166-.787-1.091-.924-.772q-.475-.6-1-1.149Zm-4.741,4.771.895.04.212.258-.106.379,1.242.772.243-.031,1.589,1.818.65-.227a17.358,17.358,0,0,1,1.616,7.107H97.859a13.731,13.731,0,0,0-.346-2.832l.17-.23.231-1.166L97.74,62.69l-.448-1.441L96.253,59.73l.251.133.127-.127-.833-.565-.056.185.833,1.191.473.978.335.967.107.651.173,1.1-.313.022s-.359-.67-.471-.948l.167-.248-.318-.455v-.454l-.227-.288-.282.036q-.152-.282-.317-.556l.2.1.054-.054-.107-.234.242-.136-.109-.137-.359.137.131-.565-.212-.122-.192.451A13.846,13.846,0,0,0,94.2,59.07ZM94.5,66.783l.667-.364.681-.107L96,65.98l.379-.228.146-.318.118-.55q.082.291.15.588l-.361,1.077-.016.364.526-.7a13.06,13.06,0,0,1,.184,1.959H93.861l-.076-.283.379-.3.075-.183.167-.121.44-.045.046-.2Zm-4.47-2.56.333-.076-.016-.08-.332-.222.113-.7.4-.4a8.684,8.684,0,0,1,.694.9l-.14.432-.364-.258-.276.076.136.257h.137l-.151.379-.107-.151Zm1.426,12.364-.8-.23-.243.09-.455-.348-.427-.154q.318-.228.614-.48l.662.467.505.267.251.251Zm-.408-14.363,2.634-2.634a13.076,13.076,0,0,1,1.629,2.188l-.329.09.017.588.989.623a12.92,12.92,0,0,1,.615,1.664L96.428,65l-.356.226-.09.547-.243.136-.2.241-.207-.074-.362-.016.211-.287.151-.743.243-.151-.712-.682-.53.182-.12.5-.334.363-.348-.288-.123-.305.2-.123.11.2.163-.059-.07-.335-.232-.014-.015.136-.152.031-.817-.954-.277-.214.106-.114.249-.087-.23-.09s-.289.065-.322.065l.164.207-.415-.008A9.293,9.293,0,0,0,91.045,62.224Zm1.341,14.014-.357-.357.273-.356.344-.7-.134-.2.229-.518-.027-.468-.138-.483-.324-.116-.12.274-.194-.052a9,9,0,0,0,.778-1.36l.335-.144.187-.253.091.106.227-.273-.182-.227.167-.045.3.121.575.016.349-.182.908-.242-.171-.3-.058-.366.488.213.182-.106-.091-.379-.6.224-.658-.134-.5-1.025h2.848a12.953,12.953,0,0,1-3.593,8.468l-.392-.391.168-.523L93,75.31Zm.5,7.262.35-.751-.137-.333.516-.455v-.272l-.44-.273.364-.726.545-.712-.545-.59h-.409l-.255-.411c.22-.182.435-.368.643-.563l2.634,2.634A17.55,17.55,0,0,1,92.89,83.5Zm3.281-3.478.289-.325-.273-1.439-.191-.075.117-.243-.622-.2-.121.515-.061.652-.131.119-1.134-1.135a13.686,13.686,0,0,0,3.809-8.988h3.727a17.4,17.4,0,0,1-4.9,11.621ZM97.2,81.048a18.136,18.136,0,0,0,5.118-12.141h3.723a21.845,21.845,0,0,1-6.21,14.771ZM74.789,77.439q-.4-.418-.772-.871l.114-.941-.394-.9-.093-1.414-.441-.858.093-.533-.533-1.02-.464-.232.188-.543-.195-.429.192-.489H73l.18-.3h.869l.136.257-.163.885-.106.152.327.711-.215.118-.149-.189-.063.07.148.422.255.493.12-.012.07-.442-.124-.163-.014-.3-.037-.618.182-1.093-.177-.295h.625a9.248,9.248,0,0,0,2.561,5.9Zm-2.461-7.278-.352.552h-.6l-.047-.035a12.955,12.955,0,0,1-.191-1.77h1.123l-.27.9Zm1.224-2.554.069-.742.441-.255.788.139.119.144a9.379,9.379,0,0,0-.12,1.279h-.893Zm3.779,2.781.186-.093.489.367-.211.173.547.364-.034-.391.291-.483.305.323.313.448-.564.125.256.51.394-.207-.051-.164.293-.2.173-.81a4.834,4.834,0,0,0,.855,1.307l-2.631,2.63a8.518,8.518,0,0,1-2.305-4.94l.538.575.507-.011Zm-2.7-10.863,2.631,2.631a9.289,9.289,0,0,0-1.4,2.012l-.184-.012-.37.116-.127-.012-.4.366.5-.08.447-.112c-.027.057-.053.114-.079.171l-.392.242h-.185l-.58.441-.556-.046-.811,1.507.162.3-.441.486-.067.634H71.128A12.952,12.952,0,0,1,74.634,59.526Zm-3.4,19.856.835.487.173.117-.6.6c-.284-.291-.555-.6-.819-.906ZM70.4,68.907c.013.363.044.721.085,1.076l-.456.1-.093.464-.95,1.205.024,1.66-.974.324-.533,0a17.36,17.36,0,0,1-.83-4.837Zm-3.675,4.813-.22-.041-.208-.232-1.043-.093.324.44-.969-.184.255-.232-.236-.233-.7.3-.25.464.1,1.059.8,1.924.388.6.221.082-.609-1.153-.132-.586.137-.145-.083-.324.365.049.561.849.14.057-.016-.62.227.132.049.338.592.156.245-.178.085.059-.01.452.261.32.315.071L68,78.229l.418.117.13-.546a18.3,18.3,0,0,0,2.567,3.311l-2.631,2.631a21.849,21.849,0,0,1-6.273-14.835h3.723A18.107,18.107,0,0,0,66.725,73.721Zm1.606-20.5,2.63,2.631a18.13,18.13,0,0,0-5.028,12.319H62.211A21.839,21.839,0,0,1,68.33,53.222Zm26.946-1.357L95.05,51.5l-.484-.243-.379.289.484.257.546.394Zm-2.255,10.5.015.288.645-.194.2-.394-.446-.584.237-.356.6.429.11-.089-.12-.086-.136-.257.247-.143-.243-.318-.563.286-.2.341-.113.31.249.418-.091.2ZM66.1,79.066l.046-.168-.335-.728-.4-.147ZM81.324,65.076c0,.626.382,1.065,1.073,1.445,0,0,0-.106-.006-.278l-.435-.435.23-.419.188-.053c-.014-.729-.03-1.543-.032-1.658l-.034,0A1.567,1.567,0,0,0,81.324,65.076Z" transform="translate(-51.365 -41.165)"/><g transform="translate(21.305 8.058)"><path class="b" d="M156.439,151.661a4.753,4.753,0,0,1,2.7,2.955,4.229,4.229,0,0,0-2.666-4.426S156.438,151.662,156.439,151.661Z" transform="translate(-143.625 -119.673)"/><path class="b" d="M147.55,62.18c0-2.33-1.691-4.914-5.83-5.826a9.331,9.331,0,0,0-1.262-.145c-.009.351-.027,1.155-.027,1.155-.006.252-.026,1.185-.031,1.386a6.046,6.046,0,0,1,.795.112c2.405.575,3.267,1.955,3.267,3.319,0,2.21-1.891,3.043-4.214,3.673-.252.069-.51.134-.77.2-.7.176-1.432.345-2.147.538-.257.069-.512.142-.763.218h0c-2.577.784-4.789,2.026-4.789,5.208,0,3.152,2.525,4.33,4.991,5.089-.017-.906-.034-1.818-.052-2.732-1.089-.509-1.857-1.182-1.857-2.313a2.461,2.461,0,0,1,1.767-2.255c.237-.106.492-.2.761-.3.614-.21,1.3-.385,2.027-.561l.77-.186h0C143.66,67.923,147.55,66.837,147.55,62.18Z" transform="translate(-126.973 -56.209)"/><path class="b" d="M141.93,124.628a2.94,2.94,0,0,0,1.879,2.491c0-.214-.04-2.184-.041-2.218.02-.393.4-.629.708-.774a14.8,14.8,0,0,1,1.492-.57c.277-.1.516-.191.782-.27h0c1.884-.567,4.062-1.291,4.062-3.582s-1.868-3.235-3.91-3.939c-.014.731-.036,1.8-.051,2.534.863.339,1.434.751,1.434,1.405,0,.82-.877,1.293-1.5,1.532-.258.1-.653.232-.761.266-.5.156-1.04.335-1.542.521a7.051,7.051,0,0,0-.763.33A2.671,2.671,0,0,0,141.93,124.628Z" transform="translate(-133.827 -96.427)"/><path class="b" d="M126.355,57.327a14.82,14.82,0,0,0-2.27.924,5.6,5.6,0,0,0-3.139,1.6,16.663,16.663,0,0,0-1.087,1.4c-.356.515-.372,1.341-.634,1.783a1.5,1.5,0,0,0-.288,1.011l.011.019a1.7,1.7,0,0,1-.434.806,1.656,1.656,0,0,1-1.536.583,1.678,1.678,0,0,0,1.284-.107,9.89,9.89,0,0,0-.285,1.071,5.176,5.176,0,0,1,1.333-2.008,2.7,2.7,0,0,0,1.8-.538,13.917,13.917,0,0,0,3.308-2.376,4.437,4.437,0,0,1,2-1.509C126.394,58.982,126.373,58.084,126.355,57.327ZM121.588,61.6l-.583.127.7-1.14.818.026Z" transform="translate(-116.977 -56.964)"/></g><g transform="translate(30.91 0)"><path class="b" d="M150.962,142.284c-.108.038-.392.159-.57.221s-.43.164-.429.231c0,.018.181,9.874.181,10.09,0,2.03,1.035,2.042,1.035,0,0-.145.208-10.682.208-10.682S151.138,142.221,150.962,142.284Z" transform="translate(-148.857 -106.183)"/><path class="b" d="M149.316,109.148c.322-.112.642-.211.941-.3.224-.069.433-.134.625-.2.013-.621.188-9.2.221-10.758a20.232,20.232,0,0,0-1.994.575C149.132,99.636,149.3,108.211,149.316,109.148Z" transform="translate(-148.281 -76.299)"/><path class="b" d="M148.455,31.394c-2.9,0-1.67,4.306-1.439,5.71.01.065.235,9.727.28,11.944.441-.116.878-.224,1.3-.328q.457-.112.877-.219c.045-2.134.258-11.355.265-11.416C149.914,35.585,151.435,31.394,148.455,31.394Z" transform="translate(-146.558 -31.394)"/></g></g><g transform="translate(122.475 40.941)"><g transform="translate(0.111)"><path class="b" d="M279.734,67.511h-.044L277.23,80.937h-3.375L270.7,64.554h2.682l2.191,12.627h.045l2.347-12.627h3.487l2.325,12.627h.044l2.28-12.627H288.7l-3.219,16.383h-3.42Z" transform="translate(-270.703 -63.333)"/><path class="b" d="M330.237,77.2c2.347,0,5.052,1.291,5.052,6.22,0,5.07-2.705,6.244-5.052,6.244s-5.074-1.173-5.074-6.244C325.163,78.5,327.89,77.2,330.237,77.2Zm0,10.4c1.789,0,2.192-2.16,2.192-4.179s-.4-4.154-2.192-4.154-2.213,2.136-2.213,4.154S328.449,87.6,330.237,87.6Z" transform="translate(-307.479 -71.876)"/><path class="b" d="M361.462,79.387a17.361,17.361,0,0,0-.088-2h2.5c.022.728.09,1.479.09,2.206h.044A3.253,3.253,0,0,1,366.94,77.2a2.893,2.893,0,0,1,.47.07V80a2.754,2.754,0,0,0-.783-.117c-1.14,0-2.392.728-2.392,2.981v6.62h-2.773Z" transform="translate(-331.932 -71.876)"/><path class="b" d="M385.345,60.8h2.772V78.4h-2.772Z" transform="translate(-348.12 -60.795)"/><path class="b" d="M409.186,60.8V76.333a16.5,16.5,0,0,0,.089,2.065h-2.592a17.035,17.035,0,0,1-.09-1.877h-.067a3.106,3.106,0,0,1-3.063,2.065c-2.861,0-4.046-2.864-4.046-6.22,0-3.942,1.5-6.243,3.98-6.243a3.091,3.091,0,0,1,2.973,1.925h.045V60.8Zm-4.962,15.656c1.632,0,2.19-1.854,2.19-4.131,0-2.347-.626-4.06-2.147-4.06-1.543,0-2.079,1.572-2.079,3.99C402.188,75.042,402.614,76.451,404.224,76.451Z" transform="translate(-357.622 -60.795)"/><path class="b" d="M457.627,64.554h2.862V71.22h4.627V64.554h2.862V80.937h-2.862V73.708h-4.627v7.229h-2.862Z" transform="translate(-396.931 -63.333)"/><path class="b" d="M503.98,88.893a8.244,8.244,0,0,1-3.442.774c-3.711,0-5.32-2.793-5.32-6.056,0-3.615,1.811-6.408,4.738-6.408,2.481,0,4.6,1.526,4.6,6.455v.563H497.9c0,2.066.782,3.309,2.928,3.309a4.436,4.436,0,0,0,3.018-.939Zm-2.1-6.5c0-2.136-.671-3.217-1.922-3.217-1.453,0-2.056,1.62-2.056,3.217Z" transform="translate(-422.316 -71.876)"/><path class="b" d="M529.219,78.1a7.718,7.718,0,0,1,3.644-.892c3.576,0,4.4,1.831,4.4,4.859v5.281a15.644,15.644,0,0,0,.157,2.136h-2.5a6.277,6.277,0,0,1-.156-1.643h-.045a3.669,3.669,0,0,1-3.219,1.83,3.38,3.38,0,0,1-3.442-3.544c0-3.286,2.548-4.107,6.058-4.107h.558V81.57a2.037,2.037,0,0,0-2.146-2.3,5.164,5.164,0,0,0-3.152,1.174Zm5.454,5.469h-.246c-2.37,0-3.778.517-3.778,2.276a1.71,1.71,0,0,0,1.766,1.855c1.654,0,2.258-1.291,2.258-3.451Z" transform="translate(-444.492 -71.876)"/><path class="b" d="M564.816,60.8h2.772V78.4h-2.772Z" transform="translate(-469.315 -60.795)"/><path class="b" d="M580.214,68.266l2.773-.892v3.38h2.3v2.136h-2.3v6.267c0,1.291.446,1.667,1.251,1.667a2.1,2.1,0,0,0,1.05-.258V82.63a4.1,4.1,0,0,1-1.856.4c-2.056,0-3.219-.986-3.219-3.52v-6.62h-1.832V70.754h1.832Z" transform="translate(-478.476 -65.238)"/><path class="b" d="M604.058,60.8h2.772V67.86h.067a3.1,3.1,0,0,1,2.861-1.737c2.617,0,3.4,2.042,3.4,4.483V78.4h-2.772V71.146c0-1.854-.446-2.629-1.586-2.629-1.454,0-1.967,1.291-1.967,2.841V78.4h-2.772Z" transform="translate(-495.814 -60.795)"/></g><g transform="translate(0 21.354)"><path class="b" d="M276.575,128.438c3.242,0,6.214,2.535,6.214,8.427s-2.972,8.425-6.214,8.425-6.215-2.534-6.215-8.425S273.333,128.438,276.575,128.438Zm0,14.552c1.81,0,3.263-1.619,3.263-6.125s-1.453-6.127-3.263-6.127-3.264,1.619-3.264,6.127S274.764,142.99,276.575,142.99Z" transform="translate(-270.36 -127.828)"/><path class="b" d="M314.2,143.993a17.475,17.475,0,0,0-.09-1.995h2.5c.022.728.089,1.479.089,2.207h.045a3.252,3.252,0,0,1,2.928-2.4,2.882,2.882,0,0,1,.469.07V144.6a2.728,2.728,0,0,0-.782-.117c-1.14,0-2.392.727-2.392,2.98v6.619H314.2Z" transform="translate(-299.905 -136.858)"/><path class="b" d="M336.6,155.963A7.056,7.056,0,0,0,340,157c2.616,0,3.041-1.9,3.041-3.8v-1.15H343a3.155,3.155,0,0,1-3.04,2.043c-1.611,0-4.024-1.127-4.024-6.009,0-3.333,1.141-6.267,4.158-6.267a3.3,3.3,0,0,1,3.041,2.066h.089c0-.634.066-1.244.089-1.878h2.5c-.045.634-.09,1.268-.09,1.9v8.918c0,3.78-1.1,6.479-5.321,6.479a11.109,11.109,0,0,1-3.957-.751Zm4.311-4.013c1.743,0,2.436-1.314,2.436-4.061,0-2.535-.917-3.9-2.235-3.873-1.453.024-2.012,1.431-2.012,3.9C339.1,150.753,339.973,151.95,340.913,151.95Z" transform="translate(-314.639 -136.858)"/><path class="b" d="M372.9,142.7a7.719,7.719,0,0,1,3.644-.892c3.577,0,4.4,1.831,4.4,4.859v5.282a15.748,15.748,0,0,0,.156,2.136h-2.5a6.309,6.309,0,0,1-.157-1.644H378.4a3.664,3.664,0,0,1-3.218,1.831,3.381,3.381,0,0,1-3.442-3.544c0-3.286,2.548-4.108,6.057-4.108h.559v-.446a2.037,2.037,0,0,0-2.146-2.3,5.154,5.154,0,0,0-3.152,1.174Zm5.455,5.469h-.246c-2.37,0-3.778.517-3.778,2.276A1.71,1.71,0,0,0,376.1,152.3c1.654,0,2.258-1.29,2.258-3.45Z" transform="translate(-338.821 -136.858)"/><path class="b" d="M408.522,143.993a17.245,17.245,0,0,0-.09-1.995h2.594c.022.61.089,1.244.089,1.855h.045a3.363,3.363,0,0,1,3.063-2.043c2.614,0,3.4,2.043,3.4,4.483v7.793h-2.772v-7.253c0-1.854-.447-2.628-1.587-2.628-1.454,0-1.967,1.29-1.967,2.839v7.042h-2.772Z" transform="translate(-363.599 -136.858)"/><path class="b" d="M444.423,126.559h2.862v2.864h-2.862Zm.045,5.14h2.772v12.088h-2.772Z" transform="translate(-387.903 -126.559)"/><path class="b" d="M461.041,151.965l4.918-7.369H461.2v-2.207h7.534v2.489L463.9,152.27h4.984v2.207h-7.846Z" transform="translate(-399.125 -137.249)"/><path class="b" d="M490.87,142.7a7.721,7.721,0,0,1,3.645-.892c3.577,0,4.4,1.831,4.4,4.859v5.282a15.448,15.448,0,0,0,.157,2.136h-2.5a6.225,6.225,0,0,1-.158-1.644h-.045a3.665,3.665,0,0,1-3.218,1.831,3.381,3.381,0,0,1-3.443-3.544c0-3.286,2.548-4.108,6.057-4.108h.559v-.446a2.037,2.037,0,0,0-2.146-2.3,5.156,5.156,0,0,0-3.152,1.174Zm5.455,5.469h-.245c-2.37,0-3.779.517-3.779,2.276a1.709,1.709,0,0,0,1.766,1.854c1.655,0,2.258-1.29,2.258-3.45Z" transform="translate(-418.484 -136.858)"/><path class="b" d="M524.075,132.872l2.772-.892v3.38h2.3V137.5h-2.3v6.267c0,1.291.448,1.665,1.252,1.665a2.1,2.1,0,0,0,1.051-.257v2.065a4.1,4.1,0,0,1-1.856.4c-2.056,0-3.219-.986-3.219-3.521V137.5h-1.833V135.36h1.833Z" transform="translate(-440.453 -130.22)"/><path class="b" d="M549.38,126.559h2.861v2.864H549.38Zm.353,5.14h2.772v12.088h-2.772Z" transform="translate(-458.779 -126.559)"/><path class="b" d="M570.62,141.81c2.347,0,5.051,1.291,5.051,6.221,0,5.069-2.7,6.243-5.051,6.243s-5.075-1.174-5.075-6.243C565.545,143.1,568.272,141.81,570.62,141.81Zm0,10.4c1.788,0,2.191-2.161,2.191-4.178s-.4-4.155-2.191-4.155-2.213,2.136-2.213,4.155S568.831,152.209,570.62,152.209Z" transform="translate(-469.696 -136.858)"/><path class="b" d="M603.98,143.993a17.375,17.375,0,0,0-.091-1.995h2.593c.022.61.09,1.244.09,1.855h.045a3.361,3.361,0,0,1,3.061-2.043c2.616,0,3.4,2.043,3.4,4.483v7.793h-2.771v-7.253c0-1.854-.448-2.628-1.589-2.628-1.452,0-1.966,1.29-1.966,2.839v7.042H603.98Z" transform="translate(-495.589 -136.858)"/></g></g></g></g></svg>